<svg width="17" height="17" viewBox="0 0 17 17" fill="none" xmlns="http://www.w3.org/2000/svg">
<circle cx="8.5" cy="8.5" r="8.5" fill="url(#paint0_linear_1313_69)"/>
<path fill-rule="evenodd" clip-rule="evenodd" d="M8.03546 2.11925C8.00526 2.18483 7.09238 3.57503 6.00686 5.20861C4.92133 6.84216 4.02414 8.20014 4.01304 8.22635C3.99862 8.26044 4.58836 8.59317 6.08091 9.39301L8.169 10.512L10.2565 9.39241C11.7562 8.58807 12.3383 8.25929 12.3237 8.22483C12.2483 8.04652 8.18901 2 8.14472 2C8.11484 2 8.06567 2.05365 8.03546 2.11925ZM4.01799 9.0311C4.09845 9.15586 8.15176 14.3281 8.16871 14.3276C8.19672 14.3269 12.3408 9.01576 12.3248 9.0012C12.3097 8.98752 8.43612 11.0566 8.27453 11.1647L8.17549 11.2309L6.16993 10.1571C5.06687 9.56642 4.12363 9.05934 4.07387 9.03025C3.99136 8.98204 3.98641 8.98211 4.01799 9.0311Z" fill="black"/>
<defs>
<linearGradient id="paint0_linear_1313_69" x1="8.5" y1="0" x2="8.5" y2="17" gradientUnits="userSpaceOnUse">
<stop stop-color="#72FF79"/>
<stop offset="1" stop-color="#4AFFDE"/>
</linearGradient>
</defs>
</svg>
